<?xml version="1.0" encoding="utf-8"?>
<!-- Generator: Adobe Illustrator 21.0.2, SVG Export Plug-In . SVG Version: 6.00 Build 0)  -->
<svg version="1.1" id="Слой_1" xmlns="http://www.w3.org/2000/svg" xmlns:xlink="http://www.w3.org/1999/xlink" x="0px" y="0px"
	 viewBox="0 0 187.2 60.7" style="enable-background:new 0 0 187.2 60.7;" xml:space="preserve">
<style type="text/css">
	.st0{fill:#00183F;}
	.st1{fill:#B1AFAD;}
</style>
<g>
	<path class="st0" d="M52.4,33.9c2.5,0,3-0.9,3.2-2.2c0.3-2.2,0.3-5.1,3.6-5.1c2.1,0,3.3,1.4,3.3,2.9c0,1.4-1.1,2.4-2.2,2.4
		c-0.9,0-2-0.7-2-1.8c0-0.2,0-0.5,0.1-0.7c0.2-0.6,0.7-0.8,0.7-1.2c0-0.1-0.1-0.3-0.3-0.3c-0.2,0-1.4-0.4-1.7,2.5
		c-0.1,1.7-0.1,3.3-1.8,3.9v0.3c2.4,0.7,3.5,0.6,4.2,2.6c0.4,1.1,0.1,4,1.3,4c0.5,0,0.9-0.8,1.1-1.7H63c-0.3,2.7-2,4-3.7,4
		c-2.7,0-3.2-2.3-3.5-4.2c-0.4-3-0.5-4.2-2.8-4.2h-0.9v5.3c0,1.4,0.6,1.7,2.1,1.8V43H46v-0.9c1.5-0.1,2.1-0.4,2.1-1.8V29.6
		c0-1.5-0.6-1.7-2.1-1.8v-0.9h8.2v0.9c-1.5,0.1-2.1,0.4-2.1,1.8v4.3H52.4L52.4,33.9z"/>
	<path class="st0" d="M72.5,26.5c4.6,0,8.3,3.5,8.3,8.4c0,4.9-3.6,8.4-8.3,8.4c-4.7,0-8.3-3.5-8.3-8.4C64.2,30,67.7,26.5,72.5,26.5
		L72.5,26.5z M72.5,42.4c3.8,0,3.9-3.6,3.9-7.7c0-2.9,0.3-7.3-3.9-7.3c-3.8,0-3.9,3.5-3.9,7.3C68.6,38.8,68.7,42.4,72.5,42.4
		L72.5,42.4z"/>
	<path class="st0" d="M96.9,26.5l0.6,5.5h-1.1c-0.9-3-3.2-4.4-5.2-4.4c-2.9,0-4.2,3.1-4.2,8.2c0,3.4,1.4,6.1,5,6.1
		c2,0,3.9-1.4,5.1-3.2l0.8,0.6c-1.7,2.8-3.8,4-6.9,4c-2.8,0-8.5-1.5-8.5-8.1c0-5.9,4.1-8.7,7.7-8.7c2.5,0,3,0.8,4.6,1
		c0.1,0,0.2,0,0.3,0c0.5-0.1,0.8-0.5,0.8-1H96.9L96.9,26.5z"/>
	<path class="st0" d="M108.8,40.3c0,1.5,0.6,1.7,2.1,1.8V43h-8.2v-0.9c1.5-0.1,2.1-0.4,2.1-1.8V27.9h-0.4c-1.7,0-3.3,0.4-4.2,5.1
		h-0.9l0.2-6.2h14.6l0.2,6.2h-0.9c-0.7-4.7-2.6-5.1-4.1-5.1h-0.4V40.3L108.8,40.3z"/>
	<path class="st0" d="M130.6,37.5l-0.1,5.5h-14.8v-0.9c1.5,0,2.1-0.4,2.1-1.8V29.6c0-1.5-0.6-1.7-2.1-1.8v-0.9H130l0.2,4.8h-0.8
		c-0.2-1.4-0.7-2.1-1.2-2.5c-0.6-0.6-1.7-1.4-4-1.4c-1.1,0-2.3,0.2-2.3,1.7V34h0.3c2.3,0,3-0.3,3.3-2.8h1v6.7h-1
		c-0.4-2.9-1.1-2.9-2.6-2.9h-1v5c0,1.1,0.1,2,2.9,2c1.9,0,4.1-0.3,5-4.7H130.6L130.6,37.5z"/>
	<path class="st0" d="M138.4,40.3c0,0.7,0,1.8,2,1.8V43h-8.1v-0.9c2.1,0,2.1-1.1,2.1-1.8V29.6c0-1.5-0.6-1.7-2.1-1.8v-0.9h8.1v0.9
		c-1.4,0.1-2,0.4-2,1.8V34h6.3v-4.4c0-1.5-0.6-1.7-2-1.8v-0.9h8.2v0.9c-1.5,0.1-2.1,0.4-2.1,1.8v10.7c0,1.4,0.6,1.8,2,1.8V43h-8.1
		v-0.9c2,0,2-1.1,2-1.8v-5.2h-6.3V40.3L138.4,40.3z"/>
	<path class="st0" d="M158.9,33.9c2.5,0,3-0.9,3.2-2.2c0.3-2.2,0.3-5.1,3.6-5.1c2.1,0,3.3,1.4,3.3,2.9c0,1.4-1.1,2.4-2.2,2.4
		c-0.9,0-2-0.7-2-1.8c0-0.2,0-0.5,0.1-0.7c0.2-0.6,0.7-0.8,0.7-1.2c0-0.1-0.1-0.3-0.3-0.3c-0.2,0-1.4-0.4-1.7,2.5
		c-0.1,1.7-0.1,3.3-1.8,3.9v0.3c2.4,0.7,3.5,0.6,4.2,2.6c0.4,1.1,0.1,4,1.3,4c0.5,0,0.9-0.8,1.1-1.7h1.1c-0.3,2.7-2,4-3.7,4
		c-2.7,0-3.2-2.3-3.5-4.2c-0.4-3-0.5-4.2-2.8-4.2h-0.9v5.3c0,1.4,0.6,1.7,2.1,1.8V43h-8.2v-0.9c1.5-0.1,2.1-0.4,2.1-1.8V29.6
		c0-1.5-0.6-1.7-2.1-1.8v-0.9h8.2v0.9c-1.5,0.1-2.1,0.4-2.1,1.8v4.3H158.9L158.9,33.9z"/>
	<path class="st0" d="M178.9,26.5c4.6,0,8.3,3.5,8.3,8.4c0,4.9-3.6,8.4-8.3,8.4c-4.7,0-8.3-3.5-8.3-8.4
		C170.7,30,174.2,26.5,178.9,26.5L178.9,26.5z M178.9,42.4c3.8,0,3.9-3.6,3.9-7.7c0-2.9,0.3-7.3-3.9-7.3c-3.8,0-3.9,3.5-3.9,7.3
		C175.1,38.8,175.1,42.4,178.9,42.4L178.9,42.4z"/>
	<path class="st0" d="M46.2,57.3v-0.6c1-0.2,1.1-0.1,1.1-1.1v-5c0-1-0.1-0.9-1.1-1.1v-0.6H51v0.6c-1,0.2-1.1,0.2-1.1,1.1V56h0.1
		l3.3-7H57v0.6c-1,0.2-1.1,0.1-1.1,1.1v5c0,1,0.1,0.9,1.1,1.1v0.6h-4.7v-0.6c1-0.2,1.1-0.1,1.1-1.1v-5.3h-0.1l-3.1,6.9H46.2
		L46.2,57.3z"/>
	<path class="st0" d="M73,48.9v0.6c-1,0.2-1.1,0.1-1.1,1.1v5c0,1,0.1,0.9,1.1,1.1v0.6h-4.8v-0.6c1-0.2,1.1-0.1,1.1-1.1v-5
		c0-0.3-0.1-0.9-0.9-0.9H67c-0.8,0-0.9,0.6-0.9,0.9v5c0,1,0.1,0.9,1.1,1.1v0.6h-4.8v-0.6c1-0.2,1.1-0.1,1.1-1.1v-5
		c0-1-0.1-0.9-1.1-1.1v-0.6H73L73,48.9z"/>
	<path class="st0" d="M83.1,56.4c-0.5,0.6-1.2,1.1-2,1.1c-0.5,0-1.3-0.2-1.6-1.3c-1,0.8-1.7,1.3-2.9,1.3c-1.4,0-2.4-0.9-2.4-2.1
		c0-2.4,3-2.7,5.3-3.1v-0.4c0-2.4-1.2-2.5-2-2.5c-0.7,0-1.2,0.2-1.2,0.4c0,0.1,0.3,0.2,0.4,0.4c0.1,0.1,0.2,0.3,0.2,0.5
		c0,0.6-0.3,1.2-1,1.2c-0.6,0-1.2-0.3-1.2-1.1c0-1.3,1.6-2,3.3-2c3.4,0,3.8,1.6,3.8,4.6c0,0.5-0.1,0.9-0.1,1.4
		c0,0.7-0.1,1.5,0.3,1.5c0.2,0,0.4-0.1,0.5-0.2L83.1,56.4L83.1,56.4z M76.6,55c0,0.9,0.7,1.3,1.4,1.3c0.6,0,1.5-0.5,1.5-2.4v-1.1
		C78.4,53.1,76.6,53.3,76.6,55L76.6,55z"/>
	<path class="st0" d="M83.7,49.2c1.5,0,2-0.1,3.5-0.4v1.6c0.5-0.9,1.4-1.7,2.6-1.7c1.5,0,3.3,1.4,3.3,4.6c0,2.8-2.1,4.2-3.3,4.2
		c-1.2,0-2-0.9-2.3-1.2V59c0,1,0.1,0.9,1.1,1.1v0.6h-4.8v-0.6c1-0.1,1.1-0.1,1.1-1.1v-7.6c0-1.2-0.3-1.6-1.4-1.6V49.2L83.7,49.2z
		 M88.9,56.4c1.4,0,1.5-1.8,1.5-2.9v-0.9c0-1.3-0.2-2.7-1.5-2.7c-0.6,0-1.4,0.6-1.5,2.7c0,0.3,0,0.7,0,1
		C87.4,54.8,87.6,56.4,88.9,56.4L88.9,56.4z"/>
	<path class="st0" d="M103.3,52.4h-0.7c-0.2-1.8-1.3-2.7-2.1-2.7c-0.3,0-0.3,0.2-0.3,0.4v5.6c0,1,0.1,0.9,1.1,1.1v0.6h-4.8v-0.6
		c1-0.2,1.1-0.1,1.1-1.1V50c0-0.2-0.1-0.4-0.3-0.4c-0.8,0-1.9,0.9-2.1,2.7h-0.7l0.2-3.4h8.5L103.3,52.4L103.3,52.4z"/>
	<path class="st0" d="M108.1,55.6c0,1,0.1,0.9,1.1,1.1v0.6h-4.8v-0.6c1-0.2,1.1-0.1,1.1-1.1v-5c0-1-0.1-0.9-1.1-1.1v-0.6h4.8v0.6
		c-1,0.1-1.1,0.1-1.1,1.1v2h3v-2c0-1-0.1-0.9-1.1-1.1v-0.6h4.8v0.6c-1,0.1-1.1,0.1-1.1,1.1v5c0,1,0.1,0.9,1.1,1.1v0.6h-4.8v-0.6
		c1-0.2,1.1-0.1,1.1-1.1v-2.2h-3V55.6L108.1,55.6z"/>
	<path class="st0" d="M124.1,54.9c-0.7,1.7-2.5,2.7-4,2.7c-1.8,0-4.4-1.4-4.4-4.3c0-2.6,2-4.5,4.4-4.5c2.1,0,3.9,1.5,3.8,4.2h-5.6
		c0,1.3,0.4,3.5,2.5,3.5c1,0,2-0.8,2.4-1.6H124.1L124.1,54.9z M121.4,52.3c0.1-1.6-0.1-3-1.4-3c-1.5,0-1.5,1.5-1.6,3H121.4
		L121.4,52.3z"/>
	<path class="st0" d="M124.9,49.2c1.5,0,2-0.1,3.5-0.4v1.6c0.5-0.9,1.4-1.7,2.6-1.7c1.5,0,3.3,1.4,3.3,4.6c0,2.8-2.1,4.2-3.3,4.2
		c-1.2,0-2-0.9-2.3-1.2V59c0,1,0.1,0.9,1.1,1.1v0.6h-4.8v-0.6c1-0.1,1.1-0.1,1.1-1.1v-7.6c0-1.2-0.3-1.6-1.4-1.6V49.2L124.9,49.2z
		 M130.2,56.4c1.4,0,1.5-1.8,1.5-2.9v-0.9c0-1.3-0.2-2.7-1.5-2.7c-0.6,0-1.4,0.6-1.5,2.7c0,0.3,0,0.7,0,1
		C128.7,54.8,128.9,56.4,130.2,56.4L130.2,56.4z"/>
	<path class="st0" d="M141,52.6c1.6,0,3.7,0.2,3.7,2.1c0,2.4-2.3,2.6-4.7,2.6h-4.5v-0.6c1-0.2,1.1-0.1,1.1-1.1v-5.3
		c0-0.7-0.4-0.6-1.1-0.7v-0.6h4.8v0.6c-1,0.1-1.2,0.1-1.2,1.1v1.9H141L141,52.6z M139.1,55.7c0,0.9,0.5,1,1.3,1
		c0.4,0,1.7-0.2,1.7-1.8c0-1.5-1.4-1.7-2.1-1.7c-0.6,0-0.8-0.1-0.8,0.4V55.7L139.1,55.7z M149.6,49.5c-1,0.1-1.1,0.1-1.1,1.1v4.9
		c0,1,0.1,1,1.1,1.1v0.6h-4.7v-0.6c1-0.2,1.1-0.1,1.1-1.1v-4.9c0-1-0.1-0.9-1.1-1.1v-0.6h4.8V49.5L149.6,49.5z"/>
	<path class="st1" d="M36.9,7.7h-29v0H3.9v0.4c1.8,0.3,2.4,1.8,2.6,3.5h0.1v0C8.7,12,9.1,14,9.1,15.9V32c0,1.1,0,2.3,0.1,3.4
		c1.3,2.6,2.8,5,4.5,7.2V15.9c0.1-2,0.5-4,2.6-4.3h1.2v0c2,0.3,2.5,2.2,2.6,4v33.6c1.4,1.2,2.9,2.2,4.5,3.2V16.1
		c0.1-2,0.5-4.2,2.6-4.4h1.2v0c2,0.3,2.5,2,2.6,3.8v39.8c1.5,0.5,3,0.9,4.5,1.1V16.2c0.1-2.1,0.4-4.3,2.6-4.6h0.2
		c0.2-1.7,0.8-3.3,2.6-3.5V7.8L36.9,7.7L36.9,7.7L36.9,7.7z M40.8,0L40.8,0L4.1,0v0H0v0.4c1.8,0.3,2.4,1.8,2.6,3.5h39.6
		c0.2-1.7,0.7-3.3,2.6-3.5V0H40.8L40.8,0z"/>
	<path class="st1" d="M49.5,16.8c0.1-1.1,1-2.6,2.9-2.6c2.1,0,2.9,1.6,2.9,2.8c0,1.3-0.9,2.8-2.9,2.8c-2,0-2.9-1.4-2.9-2.7h-0.9v1.5
		c0,0.6,0.1,0.6,0.7,0.7v0.4h-3.1v-0.4c0.7-0.1,0.7,0,0.7-0.7v-3.2c0-0.6-0.1-0.7-0.7-0.7v-0.4h3.1v0.4c-0.7,0-0.7,0.1-0.7,0.7v1.3
		H49.5L49.5,16.8z M51.3,17.1c0,1.1-0.1,2.4,1.2,2.4c1.2,0,1.2-1.4,1.2-2.4c0-1.1,0.1-2.4-1.2-2.4C51.2,14.7,51.3,16,51.3,17.1
		L51.3,17.1z"/>
	<path class="st1" d="M56,14.6c1,0,1.3,0,2.3-0.2v1c0.3-0.6,0.9-1.1,1.6-1.1c1,0,2.2,0.9,2.2,3c0,1.8-1.4,2.7-2.1,2.7
		c-0.8,0-1.3-0.5-1.5-0.8v1.7c0,0.6,0.1,0.6,0.7,0.7V22h-3.1v-0.4c0.7-0.1,0.7,0,0.7-0.7V16c0-0.8-0.2-1-0.9-1V14.6L56,14.6z
		 M59.4,19.2c0.9,0,1-1.2,1-1.9v-0.6c0-0.8-0.1-1.8-1-1.8c-0.4,0-0.9,0.4-1,1.7c0,0.2,0,0.4,0,0.6C58.5,18.2,58.6,19.2,59.4,19.2
		L59.4,19.2z"/>
	<path class="st1" d="M62.9,19.8v-0.4c0.7-0.1,0.7,0,0.7-0.7v-3.2c0-0.7-0.1-0.6-0.7-0.7v-0.4h3.1v0.4c-0.6,0.1-0.7,0.1-0.7,0.7v3.4
		h0.1l2.1-4.5h2.4v0.4c-0.7,0.1-0.7,0-0.7,0.7v3.2c0,0.6,0.1,0.6,0.7,0.7v0.4h-3.1v-0.4c0.7-0.1,0.7-0.1,0.7-0.7v-3.4h-0.1l-2,4.5
		H62.9L62.9,19.8z"/>
	<path class="st1" d="M70.6,21.6v-2.3c1.1,0.1,1.7-1,1.7-3.5c0-1-0.7-1-1-1h-0.1v-0.4h5.5v0.4c-0.7,0.1-0.7,0-0.7,0.7v3.2
		c0,0.6,0.3,0.7,0.9,0.7v2.3h-0.4c-0.5-1.7-1.4-1.8-1.9-1.8h-2.1c-0.5,0-1.3,0.4-1.5,1.8H70.6L70.6,21.6z M73.8,19.3
		c0.6,0,0.6-0.3,0.6-0.8v-3.1c0-0.6-0.3-0.6-0.7-0.6c-0.6,0-0.7-0.1-0.8,1.4c-0.1,2.3-0.5,2.5-0.6,3c0,0,0,0.1,0,0.1
		c0,0,0.1,0,0.2,0H73.8L73.8,19.3z"/>
	<path class="st1" d="M77.7,19.8v-0.4c0.7-0.1,0.7,0,0.7-0.7v-3.2c0-0.7-0.1-0.6-0.7-0.7v-0.4h3.1v0.4c-0.6,0.1-0.7,0.1-0.7,0.7v3.4
		h0.1l2.1-4.5h2.4v0.4c-0.7,0.1-0.7,0-0.7,0.7v3.2c0,0.6,0.1,0.6,0.7,0.7v0.4h-3.1v-0.4c0.7-0.1,0.7-0.1,0.7-0.7v-3.4h-0.1l-2,4.5
		H77.7L77.7,19.8z"/>
	<path class="st1" d="M92,14.8c-0.7,0.1-0.7,0-0.7,0.7v3.2c0,0.6,0.1,0.6,0.7,0.7v0.4h-3.2v-0.4c0.7-0.1,0.8,0,0.8-0.7v-1.2
		c-0.6,0-0.9,0.1-1.2,0.1c-0.3,0-0.6,0-0.9,0c-1.3-0.1-1.3-0.9-1.3-1.6v-0.9c0-0.3-0.4-0.3-0.8-0.4v-0.4h3.1v0.4
		c-0.6,0.1-0.7,0.1-0.7,0.7v0.6c0,0.5,0,1,0.8,1c0.2,0,0.3,0,0.5,0c0.2,0,0.3,0,0.5,0v-1.6c0-0.7-0.1-0.6-0.7-0.7v-0.4H92V14.8
		L92,14.8z"/>
	<path class="st1" d="M98.2,18.2c-0.5,1.1-1.6,1.7-2.6,1.7c-1.2,0-2.9-0.9-2.9-2.8c0-1.7,1.3-2.9,2.9-2.9c1.3,0,2.5,1,2.5,2.7h-3.6
		c0,0.8,0.3,2.3,1.6,2.3c0.7,0,1.3-0.5,1.5-1H98.2L98.2,18.2z M96.4,16.6c0-1-0.1-1.9-0.9-1.9c-0.9,0-1,1-1,1.9H96.4L96.4,16.6z"/>
	<path class="st1" d="M103.9,18.8c-0.7,0.9-1.4,1.2-2.2,1.2c-1.6,0-2.7-1.4-2.7-2.7c0-1.6,1.3-3,2.9-3c1.3,0,1.8,0.8,1.8,1.3
		c0,0.4-0.3,0.8-0.8,0.8c-0.4,0-0.8-0.3-0.8-0.7c0-0.1,0-0.2,0.1-0.3c0.1-0.1,0.2-0.3,0.2-0.5c0-0.1-0.2-0.2-0.3-0.2
		c-0.1,0-0.2,0-0.3,0c-1,0.1-1.1,1.4-1.1,2.1c0,1.2,0.2,2.4,1.4,2.4c0.5,0,0.9-0.4,1.3-0.8L103.9,18.8L103.9,18.8z"/>
	<path class="st1" d="M111.2,18.7c-0.1,0.4-0.4,1.2-1.3,1.2c-1.4,0-1.4-1.1-1.5-1.9c-0.1-0.8-0.6-0.9-1.5-0.8v1.5
		c0,0.6,0.1,0.6,0.7,0.7v0.4h-3.1v-0.4c0.7-0.1,0.7,0,0.7-0.7v-3.2c0-0.7-0.1-0.6-0.7-0.7v-0.4h3.1v0.4c-0.7,0.1-0.7,0-0.7,0.7v1.3
		c0.4,0,1.1-0.1,1.3-0.7c0.3-0.7,0.2-1.9,1.4-1.9c0.6,0,1.2,0.4,1.2,1c0,0.4-0.2,0.8-0.8,0.8c-0.5,0-0.7-0.4-0.7-0.7
		c0,0,0-0.1,0.1-0.2c0,0,0-0.1,0-0.1c0,0,0-0.1-0.1-0.2h-0.1c-0.3,0.1-0.3,0.6-0.4,1c-0.1,0.4-0.4,0.8-0.7,0.9V17
		c0.8,0.1,1.4,0.1,1.7,0.7c0.3,0.6,0.1,1.4,0.6,1.4c0.1,0,0.3-0.1,0.4-0.3H111.2L111.2,18.7z"/>
	<path class="st1" d="M117.8,19.2c-0.3,0.4-0.8,0.7-1.3,0.7c-0.3,0-0.8-0.1-1.1-0.9c-0.7,0.5-1.1,0.9-1.9,0.9
		c-0.9,0-1.6-0.6-1.6-1.3c0-1.6,2-1.7,3.4-2v-0.3c0-1.6-0.8-1.6-1.3-1.6c-0.5,0-0.8,0.1-0.8,0.3c0,0.1,0.2,0.1,0.3,0.2
		c0.1,0.1,0.1,0.2,0.1,0.3c0,0.4-0.2,0.8-0.7,0.8c-0.4,0-0.8-0.2-0.8-0.7c0-0.9,1-1.3,2.2-1.3c2.2,0,2.5,1.1,2.5,2.9
		c0,0.3,0,0.6,0,0.9c0,0.5-0.1,1,0.2,1c0.1,0,0.2,0,0.3-0.2L117.8,19.2L117.8,19.2z M113.6,18.3c0,0.6,0.5,0.9,0.9,0.9
		c0.4,0,1-0.3,1-1.6v-0.7C114.8,17.1,113.6,17.2,113.6,18.3L113.6,18.3z"/>
	<path class="st1" d="M118.9,18.7c0.1,0.2,0.2,0.5,0.4,0.5c0.5,0,0.3-0.9,0.6-1.4c0.2-0.4,0.8-0.6,1.3-0.7V17c-1.1-0.2-2-0.4-2-1.4
		c0-0.7,0.6-1.2,1.7-1.2h4.1v0.4c-0.7,0.1-0.7,0-0.7,0.7v3.2c0,0.7,0.2,0.6,0.6,0.7c0,0,0.1,0,0.2,0v0.4H122v-0.4
		c0.7-0.1,0.7,0,0.7-0.7v-1.2c0-0.3-0.1-0.2-0.4-0.2c-0.9,0-1,0.4-1,1.1c0,0.3-0.1,1.6-1.5,1.6c-0.8,0-1.2-0.7-1.2-1.2H118.9
		L118.9,18.7z M122.7,15.2c0-0.1-0.1-0.3-0.4-0.3h-0.6c-0.6,0-0.9,0.4-0.9,0.8c0,1.1,1,1.1,1.5,1.1h0.4V15.2L122.7,15.2z"/>
	<path class="st1" d="M135.2,18.7c-0.1,0.4-0.4,1.2-1.3,1.2c-1.4,0-1.4-1.1-1.5-1.9c-0.1-0.8-0.6-0.9-1.5-0.8v1.5
		c0,0.6,0.1,0.6,0.7,0.7v0.4h-3.1v-0.4c0.7-0.1,0.7,0,0.7-0.7v-3.2c0-0.7-0.1-0.6-0.7-0.7v-0.4h3.1v0.4c-0.7,0.1-0.7,0-0.7,0.7v1.3
		c0.4,0,1.1-0.1,1.3-0.7c0.3-0.7,0.2-1.9,1.4-1.9c0.6,0,1.2,0.4,1.2,1c0,0.4-0.2,0.8-0.8,0.8c-0.5,0-0.7-0.4-0.7-0.7
		c0,0,0-0.1,0.1-0.2c0,0,0-0.1,0-0.1c0,0,0-0.1-0.1-0.2h-0.1c-0.3,0.1-0.3,0.6-0.4,1c-0.1,0.4-0.4,0.8-0.7,0.9V17
		c0.8,0.1,1.4,0.1,1.7,0.7c0.3,0.6,0.1,1.4,0.6,1.4c0.1,0,0.3-0.1,0.4-0.3H135.2L135.2,18.7z"/>
	<path class="st1" d="M141.8,17.1c0,1.3-0.9,2.8-2.9,2.8c-2,0-2.9-1.6-2.9-2.8c0-1.3,0.9-2.8,2.9-2.8
		C140.9,14.3,141.8,15.8,141.8,17.1L141.8,17.1z M137.7,17.1c0,1.1-0.1,2.4,1.2,2.4c1.2,0,1.2-1.4,1.2-2.4c0-1.1,0.1-2.4-1.2-2.4
		C137.6,14.7,137.7,16,137.7,17.1L137.7,17.1z"/>
	<path class="st1" d="M145.6,19.8l-1.7-5h-0.1v3.9c0,0.7,0.1,0.6,0.7,0.7v0.4h-2v-0.4c0.7-0.1,0.7,0,0.7-0.7v-3.2
		c0-0.7-0.1-0.6-0.7-0.7v-0.4h2.8l1.1,3l1.1-3h2.8v0.4c-0.7,0.1-0.7,0-0.7,0.7v3.2c0,0.6,0.1,0.6,0.7,0.7v0.4h-3.1v-0.4
		c0.7-0.1,0.7,0,0.7-0.7v-3.9h-0.2l-1.7,5H145.6L145.6,19.8z"/>
	<path class="st1" d="M157.9,14.4v0.4c-0.7,0.1-0.7,0-0.7,0.7v3.2c0,0.6,0.1,0.6,0.7,0.7v0.4h-3.1v-0.4c0.7-0.1,0.7,0,0.7-0.7v-3.2
		c0-0.2,0-0.6-0.6-0.6h-0.9c-0.5,0-0.6,0.4-0.6,0.6v3.2c0,0.6,0.1,0.6,0.7,0.7v0.4h-3.1v-0.4c0.7-0.1,0.7,0,0.7-0.7v-3.2
		c0-0.7-0.1-0.6-0.7-0.7v-0.4H157.9L157.9,14.4z"/>
	<path class="st1" d="M164.5,19.2c-0.3,0.4-0.8,0.7-1.3,0.7c-0.3,0-0.8-0.1-1.1-0.9c-0.7,0.5-1.1,0.9-1.9,0.9
		c-0.9,0-1.6-0.6-1.6-1.3c0-1.6,2-1.7,3.4-2v-0.3c0-1.6-0.8-1.6-1.3-1.6c-0.5,0-0.8,0.1-0.8,0.3c0,0.1,0.2,0.1,0.3,0.2
		c0.1,0.1,0.1,0.2,0.1,0.3c0,0.4-0.2,0.8-0.7,0.8c-0.4,0-0.8-0.2-0.8-0.7c0-0.9,1-1.3,2.2-1.3c2.2,0,2.5,1.1,2.5,2.9
		c0,0.3,0,0.6,0,0.9c0,0.5-0.1,1,0.2,1c0.1,0,0.2,0,0.3-0.2L164.5,19.2L164.5,19.2z M160.3,18.3c0,0.6,0.5,0.9,0.9,0.9
		c0.4,0,1-0.3,1-1.6v-0.7C161.5,17.1,160.3,17.2,160.3,18.3L160.3,18.3z"/>
	<path class="st1" d="M167.7,18.7c0,0.6,0.1,0.6,0.7,0.7v0.4h-3.1v-0.4c0.7-0.1,0.7,0,0.7-0.7v-3.2c0-0.7-0.1-0.6-0.7-0.7v-0.4h3.1
		v0.4c-0.6,0.1-0.7,0-0.7,0.7v1.3h1.9v-1.3c0-0.7-0.1-0.6-0.7-0.7v-0.4h3.1v0.4c-0.7,0.1-0.7,0-0.7,0.7v3.2c0,0.6,0.1,0.6,0.7,0.7
		v0.4h-3.1v-0.4c0.7-0.1,0.7,0,0.7-0.7v-1.4h-1.9V18.7L167.7,18.7z"/>
	<path class="st1" d="M172.8,19.8v-0.4c0.7-0.1,0.7,0,0.7-0.7v-3.2c0-0.7-0.1-0.6-0.7-0.7v-0.4h3.1v0.4c-0.6,0.1-0.7,0.1-0.7,0.7
		v3.4h0.1l2.1-4.5h2.4v0.4c-0.7,0.1-0.7,0-0.7,0.7v3.2c0,0.6,0.1,0.6,0.7,0.7v0.4h-3.1v-0.4c0.7-0.1,0.7-0.1,0.7-0.7v-3.4h-0.1
		l-2,4.5H172.8L172.8,19.8z"/>
	<path class="st1" d="M180.9,18.7c0,0.2,0.2,0.5,0.4,0.5c0.5,0,0.3-0.9,0.6-1.4c0.2-0.4,0.8-0.6,1.3-0.7V17c-1.1-0.2-2-0.4-2-1.4
		c0-0.7,0.6-1.2,1.7-1.2h4.1v0.4c-0.7,0.1-0.7,0-0.7,0.7v3.2c0,0.7,0.2,0.6,0.6,0.7c0,0,0.1,0,0.2,0v0.4h-3.1v-0.4
		c0.7-0.1,0.7,0,0.7-0.7v-1.2c0-0.3-0.1-0.2-0.4-0.2c-0.9,0-1,0.4-1,1.1c0,0.3-0.1,1.6-1.5,1.6c-0.8,0-1.2-0.7-1.2-1.2H180.9
		L180.9,18.7z M184.6,15.2c0-0.1-0.1-0.3-0.4-0.3h-0.6c-0.6,0-0.9,0.4-0.9,0.8c0,1.1,1,1.1,1.5,1.1h0.4V15.2L184.6,15.2z"/>
</g>
</svg>
